<svg xmlns="http://www.w3.org/2000/svg" width="8.02mm" height="11.21mm" viewBox="0 0 22.74 31.77"><defs><style>.cls-1{fill:#fff;}</style></defs><title>Asset 21</title><g id="Layer_2" data-name="Layer 2"><g id="Layer_1-2" data-name="Layer 1"><path class="cls-1" d="M22,11.58l.73-1-.85-.85.56-1.06-1-.69.37-1.14-1.08-.52.17-1.19-1.15-.33,0-1.2-1.19-.13-.23-1.17-1.2.07L16.7,1.32l-1.17.27-.61-1L13.82,1,13,.12,12,.77,11.11,0l-.88.81-1-.6-.73.95L7.34.74,6.77,1.8,5.6,1.58,5.22,2.71,4,2.69,3.84,3.87l-1.18.18,0,1.2-1.13.38.22,1.18L.72,7.38,1.14,8.5.2,9.24l.6,1-.8.88.77.92-.64,1,.91.77L.58,15l1,.6-.27,1.16,1.12.43-.07,1.19,1.18.23.13,1.19,1.18,0-4,9.88a.5.5,0,0,0,.7.63l4.1-2.16,1.8,3.35a.5.5,0,0,0,.44.26h0a.5.5,0,0,0,.44-.31l3.26-8,3,8a.5.5,0,0,0,.43.32h0a.5.5,0,0,0,.44-.25l1.89-3.34,4,2.21a.52.52,0,0,0,.76-.44.5.5,0,0,0-.1-.3L18.31,19.49l1.12-.08.08-1.19,1.17-.29-.13-1.19,1.1-.47-.32-1.15,1-.66-.52-1.08.88-.82ZM7.85,30.1,6.31,27.25A.5.5,0,0,0,5.64,27L2.31,28.79,5.5,20.91l.9-.13.52,1.08,1.14-.37.7,1,1.06-.56.85.84.23-.17ZM20.8,28.87l-3.3-1.8a.5.5,0,0,0-.67.19L15.22,30.1l-2.86-7.58.25.17.81-.88,1.08.51.65-1,1.15.32.42-1h0a.46.46,0,0,0,.37-.09l.56.06Zm-.74-16.58-.67.63.4.83-.77.5.25.88-.84.37.1.91-.89.22-.06.92-.92.07-.21.89-.91-.09-.36.84L14.27,19l-.5.77-.83-.39-.62.68-.75-.53-.73.56-.66-.64-.81.43-.53-.75L8,19.41l-.4-.83-.91.13-.26-.88-.92,0-.1-.91-.9-.18.05-.91-.86-.33.21-.9-.79-.46.35-.84-.7-.59.49-.77-.59-.7.62-.68-.46-.79.72-.56L3.2,8.31,4,7.88,3.84,7l.87-.29,0-.92.91-.14.14-.91h.92l.29-.87L7.85,4l.43-.81.86.32.56-.73.79.46.68-.62.71.59.77-.49.59.69.85-.36.47.79.9-.21.33.86.92-.06.18.9.91.1,0,.92.88.25-.13.91.83.4-.28.87.75.53-.43.81.65.65-.56.73Z"/><path class="cls-1" d="M18.55,10.57l-.25-.25.16-.31a.5.5,0,0,0-.15-.64L18,9.17l.11-.33a.5.5,0,0,0-.26-.61l-.32-.15.05-.35a.5.5,0,0,0-.36-.55l-.34-.1V6.72a.5.5,0,0,0-.45-.48l-.35,0L16,5.86a.49.49,0,0,0-.52-.4l-.35,0L15,5.15a.5.5,0,0,0-.58-.31l-.35.08-.18-.3a.5.5,0,0,0-.62-.21L13,4.55l-.23-.27a.5.5,0,0,0-.65-.1l-.3.19-.27-.23a.5.5,0,0,0-.66,0l-.26.24-.3-.18a.5.5,0,0,0-.65.13l-.21.28-.33-.12a.5.5,0,0,0-.61.23l-.17.31L8,5a.5.5,0,0,0-.57.33l-.11.33H7a.5.5,0,0,0-.49.42l-.05.35-.35.05a.5.5,0,0,0-.42.5v.35l-.33.11A.5.5,0,0,0,5,8L5,8.37l-.31.17a.5.5,0,0,0-.23.61l.12.33-.28.22a.5.5,0,0,0-.12.65l.18.3-.24.26a.5.5,0,0,0,0,.66l.23.27-.19.3a.5.5,0,0,0,.1.65l.27.23-.14.33a.5.5,0,0,0,.21.62l.3.18-.08.34a.5.5,0,0,0,.31.58l.33.13,0,.35a.5.5,0,0,0,.4.52l.35.07,0,.35a.5.5,0,0,0,.49.44H7.1l.1.34a.5.5,0,0,0,.55.36l.35-.05.15.32a.5.5,0,0,0,.61.26L9.19,18l.21.29a.5.5,0,0,0,.64.15l.31-.16.25.25a.5.5,0,0,0,.65,0l.28-.21.29.2a.5.5,0,0,0,.65-.07l.24-.26.32.15a.5.5,0,0,0,.63-.18l.19-.3.34.09a.5.5,0,0,0,.59-.29l.14-.32.35,0a.5.5,0,0,0,.54-.38l.08-.34.35,0a.5.5,0,0,0,.46-.46l0-.35.34-.08a.5.5,0,0,0,.38-.54l0-.35.32-.14a.5.5,0,0,0,.28-.59l-.09-.34.29-.19a.5.5,0,0,0,.18-.63l-.15-.32.26-.24a.5.5,0,0,0,.07-.65l-.2-.29.21-.28A.5.5,0,0,0,18.55,10.57Zm-1.2,1.21.16.23-.21.19a.5.5,0,0,0-.11.58l.12.25-.24.15a.5.5,0,0,0-.21.55l.08.27-.26.11a.5.5,0,0,0-.3.51l0,.28-.27.07a.5.5,0,0,0-.38.45l0,.28-.28,0a.5.5,0,0,0-.45.38l-.06.27-.28,0a.51.51,0,0,0-.51.3l-.11.26-.27-.08a.5.5,0,0,0-.55.21l-.15.24-.26-.12a.5.5,0,0,0-.58.11l-.19.21-.23-.16a.5.5,0,0,0-.59,0l-.22.17-.2-.2a.5.5,0,0,0-.58-.08l-.25.13-.16-.23A.5.5,0,0,0,9.23,17L9,17.05l-.12-.25a.51.51,0,0,0-.52-.28l-.28,0L8,16.29a.5.5,0,0,0-.47-.36H7.21l0-.28a.5.5,0,0,0-.4-.44l-.28-.05,0-.28a.5.5,0,0,0-.32-.5l-.27-.1L6,14a.5.5,0,0,0-.23-.54l-.24-.14.11-.26a.5.5,0,0,0-.14-.57l-.21-.18.15-.24a.5.5,0,0,0,0-.59l-.18-.22L5.39,11a.5.5,0,0,0,.06-.59l-.14-.24L5.53,10a.5.5,0,0,0,.16-.57l-.1-.27.25-.14a.5.5,0,0,0,.25-.53L6,8.26l.27-.09a.5.5,0,0,0,.34-.48V7.4l.28,0a.5.5,0,0,0,.42-.42l0-.28h.28a.57.57,0,0,0,.48-.34l.09-.27.28.05a.5.5,0,0,0,.53-.26l.13-.25.27.1A.51.51,0,0,0,10,5.54l.17-.22.24.14A.5.5,0,0,0,11,5.39l.21-.19.22.18a.5.5,0,0,0,.59,0l.24-.15.18.21a.5.5,0,0,0,.57.14l.26-.11.14.24A.5.5,0,0,0,14,6l.28-.07.1.26a.5.5,0,0,0,.5.32l.28,0,.06.28a.5.5,0,0,0,.44.4l.28,0v.28a.5.5,0,0,0,.36.47l.27.08,0,.28a.5.5,0,0,0,.28.52l.25.12L17,9.21a.5.5,0,0,0,.19.56l.23.16-.13.25a.5.5,0,0,0,.09.59l.2.2-.17.22A.5.5,0,0,0,17.35,11.78Z"/><path class="cls-1" d="M11.37,6.7A4.67,4.67,0,0,0,6.7,11.37a.5.5,0,1,0,1,0A3.67,3.67,0,0,1,11.37,7.7a.5.5,0,0,0,0-1Z"/></g></g></svg>