<svg xmlns="http://www.w3.org/2000/svg" width="11.2mm" height="10.74mm" viewBox="0 0 31.76 30.44"><defs><style>.cls-1{fill:#fff;}</style></defs><title>Asset 23</title><g id="Layer_2" data-name="Layer 2"><g id="Layer_1-2" data-name="Layer 1"><path class="cls-1" d="M15.77,4.76a11,11,0,1,0,11,11A11,11,0,0,0,15.77,4.76Zm.5,21v-.88a.5.5,0,1,0-1,0v.88A10,10,0,0,1,5.8,16.28h.88a.5.5,0,1,0,0-1H5.8A10,10,0,0,1,15.27,5.8v.88a.5.5,0,1,0,1,0V5.8a10,10,0,0,1,9.47,9.47h-.88a.5.5,0,1,0,0,1h.88A10,10,0,0,1,16.28,25.75Z"/><path class="cls-1" d="M20.64,9.29l-5.25,6.16a.5.5,0,0,0,0,.68l3.43,3.43a.5.5,0,0,0,.71-.71l-3.1-3.1,5-5.81a.5.5,0,0,0-.77-.65Z"/><path class="cls-1" d="M29.86,6.92a.5.5,0,0,0,.71,0,4.05,4.05,0,1,0-5.73-5.73.5.5,0,0,0,0,.71L27,4,25.83,5.16a14.57,14.57,0,0,0-20-.08l-1-1L6.92,1.9a.5.5,0,0,0,0-.71,4.15,4.15,0,0,0-5.73,0,4.05,4.05,0,0,0,0,5.73.5.5,0,0,0,.71,0L4.05,4.77l1,1a14.58,14.58,0,0,0,.45,20.43,1,1,0,0,0-.12.08L3,28.72a1,1,0,1,0,1.43,1.43l2.42-2.42A1,1,0,0,0,7,27.48,14.56,14.56,0,0,0,23.87,28l2.2,2.15a1,1,0,0,0,1.41-1.44l-2-2A14.57,14.57,0,0,0,26.54,5.88l1.16-1.13ZM1.57,5.82A3,3,0,0,1,5.82,1.57L3.7,3.69h0ZM15.77,28.4A12.63,12.63,0,1,1,28.4,15.77,12.64,12.64,0,0,1,15.77,28.4ZM29.86,1.9a3,3,0,0,1,.33,3.92L28.06,3.69h0L25.94,1.57A3.11,3.11,0,0,1,29.86,1.9Z"/></g></g></svg>