<svg xmlns="http://www.w3.org/2000/svg" width="11.2mm" height="10.39mm" viewBox="0 0 31.75 29.46"><defs><style>.cls-1{fill:#fff;}</style></defs><title>Asset 20</title><g id="Layer_2" data-name="Layer 2"><g id="Layer_1-2" data-name="Layer 1"><path class="cls-1" d="M31.73,8.84a1.42,1.42,0,0,0-.11-.4,1,1,0,0,0-.18-.23s0-.06-.06-.08h0A1,1,0,0,0,31,7.94h0L25.3,6.66A3,3,0,0,0,26,3.27a2.84,2.84,0,0,0-1.72-1.62l0,0L19.36.15h0a2.58,2.58,0,0,0-2.49.39,30.75,30.75,0,0,0-3,4A4.9,4.9,0,0,0,12.8,4l-5-1.41a1,1,0,0,0-.27,0A2.71,2.71,0,0,0,4.6,5.46,2.79,2.79,0,0,0,5,7l-4.25,1a1,1,0,0,0-.38.18h0s0,.05-.06.08a1,1,0,0,0-.18.23,1,1,0,0,0-.05.14A1,1,0,0,0,0,8.84s0,0,0,.08V25.08a1,1,0,0,0,.78,1l14.87,3.38.22,0,.22,0L31,26.06a1,1,0,0,0,.78-1V8.92S31.73,8.87,31.73,8.84ZM15.88,11.27l-4.27-1,2.32-.53,4.37.95ZM7.35,8.49h.07l3.39,1-1.31.3,0,0-.07,0L5.52,8.92l1.78-.4Zm4.35-1.6c0-.44.06-.85.76-.89.37.16,1.39.74,2.55,1.43l-2.21.5-.41-.11A1,1,0,0,1,11.7,6.89Zm6.67,2,4.19.91-1.94.44-4.37-.95,2-.45Zm4.71-5.23c.66-.25.89.1,1.06.49.3.65-.26,1.19-.53,1.4L21.35,6C22.12,4.87,22.8,3.92,23.07,3.62Zm-14,8.17V25.9l-2.43-.55V11.23Zm1,.23,4.77,1.08V27.2l-4.77-1.08Zm15-.78V25.34l-3.53.8V12Zm-.21-2-4.37-.95,1.57-.36a1,1,0,0,0,.2.09l4,.9ZM18.07,2.11c.12-.09.22-.17.72,0l2.38.73c-.54.69-1.4,1.9-2.86,4.12a1,1,0,0,0-.08.17L18.16,7c-1-.64-1.85-1.14-2.52-1.54C16.71,3.91,17.81,2.35,18.07,2.11ZM7.37,4.57l2.71.76A3.13,3.13,0,0,0,9.7,6.89c0,.06,0,.12,0,.18L8,6.58H7.88l-.07,0S6.6,6.37,6.6,5.46C6.6,5,6.66,4.62,7.37,4.57ZM2,10.17,5.67,11V25.12L2,24.28Zm14.88,2.92,3.67-.83V26.37l-3.67.83ZM29.75,24.28l-3.67.83V11l3.67-.83Z"/></g></g></svg>