<svg xmlns="http://www.w3.org/2000/svg" width="10.89mm" height="8.86mm" viewBox="0 0 30.88 25.1"><defs><style>.cls-1{fill:#fff;}</style></defs><title>Asset 22</title><g id="Layer_2" data-name="Layer 2"><g id="Layer_1-2" data-name="Layer 1"><path class="cls-1" d="M27.34,0a3.52,3.52,0,0,0-2.59,5.92l-4.36,7.28a3.32,3.32,0,0,0-2.56.32l-3.37-3.37a3.49,3.49,0,0,0,.44-1.68,3.54,3.54,0,1,0-6.13,2.39L4.42,18.15A3.5,3.5,0,0,0,3.54,18a3.57,3.57,0,1,0,2.59,1.15l4.36-7.28A3.32,3.32,0,0,0,13,11.57l3.37,3.37A3.49,3.49,0,0,0,16,16.62a3.54,3.54,0,1,0,6.13-2.39L26.46,7a3.5,3.5,0,0,0,.88.12,3.54,3.54,0,1,0,0-7.08ZM3.54,23.1a1.54,1.54,0,1,1,1.54-1.54A1.54,1.54,0,0,1,3.54,23.1ZM9.83,8.48A1.54,1.54,0,1,1,11.37,10,1.54,1.54,0,0,1,9.83,8.48Zm9.68,9.68a1.54,1.54,0,1,1,0-3.08,1.52,1.52,0,0,1,.78.22h0a1.53,1.53,0,0,1-.81,2.84ZM27.34,5.08a1.52,1.52,0,0,1-.78-.22h0a1.53,1.53,0,1,1,.8.23Z"/></g></g></svg>